# xmcd
#
# Track frame offsets:
#	150
#	10923
#	21259
#	31997
#	49968
#	63408
#	75486
#	92313
#	111340
#	130487
#	149957
#	160528
#	174769
#	187441
#	208367
#	221211
#	232738
#	247821
#	265598
#	277562
#	293466
#	305906
#	315660
#	331284
#
# Disc length: 4595 seconds
#
# Revision: 0
# Processed by: cddbd v1.5.1PL0 Copyright (c) Steve Scherf et al.
# Submitted via: audiograbber 1.83.01
#
DISCID=5611f118
DTITLE=Various Artist - Country
DYEAR=2005
DGENRE=Country
TTITLE0=Jerry Lee Lewis - Another Place Another Time
TTITLE1=Fats Domino - Blue Monday
TTITLE2=Fats Domino - Blueberry Hill
TTITLE3=Johnny Cash - Cadillac
TTITLE4=Jerry Lee Lewis - Crazy Arms
TTITLE5=John Prine - Daddy's Little Pumpkin
TTITLE6=Jerry Lee Lewis - Folsom Prison Blues
TTITLE7=Jerry Lee Lewis - Georgia On My Mind
TTITLE8=Jerry Lee Lewis e Van Morrison - Goodnight Irene
TTITLE9=Garth Brooks - I´ve Got Friends In Low Place
TTITLE10=Jerry Lee Lewis - I´M On Fire
TTITLE11=Jerry Lee Lewis - Me And Bobby Mcgee
TTITLE12=Jerry Lee Lewis - Oh, Lonesome Me
TTITLE13=Johnny Cash e Emmylou Harris - Jesse James - One More Shot
TTITLE14=John Prine - Please Don't Bury Me
TTITLE15=Johnny Cash - Ring of Fire
TTITLE16=Johnny Cash - Rockabilly Blues
TTITLE17=Jerry Lee Lewis - Sea Cruise
TTITLE18=Jerry Lee Lewis - Stagger Lee
TTITLE19=Johnny Cash - The Hobo Song
TTITLE20=Jerry Lee Lewis - The Wild Side Of Life
TTITLE21=John Prine - They Outta Name A Drink After
TTITLE22=John Prine, Johnny Cash, Bob - You Are My Sunshine
TTITLE23=Jerry Lee Lewis - You Win Again
EXTD=
EXTT0=
EXTT1=
EXTT2=
EXTT3=
EXTT4=
EXTT5=
EXTT6=
EXTT7=
EXTT8=
EXTT9=
EXTT10=
EXTT11=
EXTT12=
EXTT13=
EXTT14=
EXTT15=
EXTT16=
EXTT17=
EXTT18=
EXTT19=
EXTT20=
EXTT21=
EXTT22=
EXTT23=
PLAYORDER=
